<?xml version="1.0" encoding="UTF-8"?>
<svg width="752pt" height="752pt" version="1.1" viewBox="0 0 752 752" xmlns="http://www.w3.org/2000/svg">
 <g fill="#12365b">
  <path d="m499.13 562.59c1.8945 3.7891 0.94531 8.5234-2.3672 11.367-3.3164 2.8398-7.5781 3.3164-11.367 1.4219l-62.039-36.469-48.777 39.781c-1.8945 1.4219-3.7891 2.3672-6.1562 2.3672-2.3672 0-4.2617-0.94531-6.1562-2.3672l-48.777-39.781-62.516 35.992c-1.4219 0.94531-3.3164 1.4219-4.7344 1.4219-2.3672 0-4.7344-0.94531-6.6289-2.8398-3.3164-2.8398-3.7891-7.5781-2.3672-11.367l122.18-255.26c0.47266-0.94531 0.94531-1.8945 1.8945-2.8398-11.84-3.3164-20.363-14.207-20.363-26.992 0-15.629 12.785-28.414 28.414-28.414s28.414 12.785 28.414 28.414c0 13.734-9.4727 24.625-22.258 27.469 0.47266 0.47266 0.94531 1.4219 1.4219 2.3672zm-13.734-1.4219-25.102-52.094-0.47266 0.47266-7.5781-8.9961-44.516-28.887-29.359 27.465 44.043 25.574 3.3164-2.8398 7.5781 8.9961zm-37.414-77.668-16.574-34.098-15.156 14.207zm-41.672-26.992 18.469-17.523-31.258-29.836-17.051 27.941zm8.0508-43.57-10.418-21.312-4.7344 7.5781zm-40.258 150.6 37.887-30.781-37.887-22.258zm24.152-185.17-23.68-49.727v45.938l16.574 15.629zm-24.152 107.98 23.207-21.785-23.207-14.68zm0-68.672 10.418-17.051-10.418-9.9453zm-11.84 145.86v-53.039l-37.887 22.258zm0-77.191v-36.465l-23.207 14.68-8.0508 8.5234-2.3672-1.8945-44.516 28.887-7.5781 8.9961 0.003906 0.003906-25.102 52.094 52.094-30.309 7.5781-8.9961 3.3164 2.8398 44.043-25.574-4.2617-3.7891zm0-68.672v-26.52l-10.418 9.4727zm0-43.094v-45.938l-23.68 49.727 7.1055 11.84zm-1.8906 62.512-17.051-28.414-31.73 30.309 18.469 17.523zm-23.207-38.359-4.7344-7.5781-10.418 21.785zm-48.777 84.77 31.73-20.363-15.156-14.207z"/>
  <path d="m459.82 509.08-26.52 21.785-7.5781-9 26.52-21.785z"/>
  <path d="m455.56 213.56c35.047 36.465 35.047 93.297 0 130.23-5.2109 5.6836-13.734-2.8398-8.5234-8.5234 30.781-31.73 30.781-81.457 0-113.19-5.2109-5.6797 3.3164-14.207 8.5234-8.5234z"/>
  <path d="m437.09 232.03c25.102 26.52 25.102 66.301 0 93.297-5.2109 5.6836-13.734-2.8398-8.5234-8.5234 20.836-21.785 20.836-54.461 0-76.246-5.2109-5.6836 3.3125-14.207 8.5234-8.5273z"/>
  <path d="m429.99 277.97c0 9.9453-3.7891 20.363-11.367 28.414-5.2109 5.6836-13.734-2.8398-8.5234-8.5234 5.2109-5.6836 8.0508-12.785 8.0508-19.891z"/>
  <path d="m429.99 277.97-11.84 0.47266c0-7.1055-2.8398-13.734-8.0508-19.891-5.2109-5.6836 3.3164-14.207 8.5234-8.5234 7.5781 8.5273 11.367 17.996 11.367 27.941z"/>
  <path d="m331.19 473.39 8.082-8.6523 23.188 21.66-8.082 8.6523z"/>
  <path d="m316.33 250.5c5.2109-5.6836 13.262 2.8398 8.5234 8.5234-5.2109 5.6836-8.0508 12.785-8.0508 19.891h-11.84c0-9.9453 3.7891-19.891 11.367-28.414z"/>
  <path d="m324.86 298.34c5.2109 5.6836-3.3164 13.734-8.5234 8.5234-7.5781-8.0508-11.367-17.523-11.367-27.469l11.84-0.47266c0 6.6289 2.3672 13.734 8.0508 19.418z"/>
  <path d="m311.12 521.86-7.5781 9-26.52-21.785 7.1016-9z"/>
  <path d="m297.86 232.03c5.2109-5.6836 13.734 2.8398 8.5234 8.5234-20.836 21.785-20.836 54.461 0 76.246 5.2109 5.6836-3.3164 13.734-8.5234 8.5234-25.098-26.988-25.098-66.77 0-93.293z"/>
  <path d="m279.39 213.56c5.2109-5.6836 13.734 2.8398 8.5234 8.5234-30.781 31.73-30.781 81.457 0 113.19 5.2109 5.6836-2.8398 13.734-8.5234 8.5234-35.043-36.938-35.043-93.77 0-130.23z"/>
 </g>
</svg>
