<?xml version="1.0" encoding="utf-8"?>
<!-- Svg Vector Icons : http://www.onlinewebfonts.com/icon -->
<!DOCTYPE svg PUBLIC "-//W3C//DTD SVG 1.1//EN" "http://www.w3.org/Graphics/SVG/1.1/DTD/svg11.dtd">
<svg version="1.1" xmlns="http://www.w3.org/2000/svg" xmlns:xlink="http://www.w3.org/1999/xlink" x="0px" y="0px" viewBox="0 0 1000 1000" enable-background="new 0 0 1000 1000" xml:space="preserve">
<metadata> Svg Vector Icons : http://www.onlinewebfonts.com/icon </metadata>
<g><g transform="translate(0.000000,511.000000) scale(0.100000,-0.100000)"><path d="M4662.5,4998.6c-916.1-115.7-1689-588.5-2193.1-1341.8c-300.1-445.3-470.8-965.1-500.2-1514.4c-13.7-239.3-13.7-239.3,37.3-290.3c68.7-68.7,172.6-70.6,239.3-2c41.2,39.2,49,66.7,49,160.9c0,145.2,47.1,490.4,88.3,643.4c117.7,447.3,347.2,851.4,678.7,1194.6c390.4,406.1,849.4,659.1,1416.3,780.7c264.8,54.9,743.5,58.9,1002.4,7.8c527.7-104,994.5-343.3,1373.2-700.3c510-482.6,798.4-1110.3,845.5-1840c13.7-202.1,19.6-221.7,64.7-257c53-41.2,141.3-51,198.1-19.6c92.2,47.1,100,258.9,29.4,686.6c-54.9,333.5-237.4,810.2-415.9,1086.8c-457.1,708.2-1180.9,1202.5-2000.9,1367.3C5357,5004.5,4866.5,5024.1,4662.5,4998.6z"/><path d="M4601.7,4280.7c-468.8-84.4-872.9-288.4-1210.3-610.1c-441.4-419.8-686.6-945.5-733.7-1569.3l-13.7-180.5l60.8-62.8c54.9-53,72.6-60.8,135.4-51c105.9,17.7,135.4,66.7,151,253.1c39.2,470.8,174.6,825.8,439.4,1157.4c818,1031.8,2385.4,1008.3,3179.8-47.1c225.6-298.2,355-645.4,394.3-1051.4c19.6-204,27.5-235.4,70.6-272.7c68.7-64.7,153-58.8,225.6,13.7l58.8,60.8l-13.7,170.7c-49,606.2-260.9,1088.7-659.1,1504.6c-347.2,360.9-796.4,598.3-1292.7,684.6C5170.6,4317.9,4813.6,4317.9,4601.7,4280.7z"/><path d="M4603.7,3603.9c-411.9-100-784.7-364.9-1016.1-719.9c-162.8-249.1-272.7-598.3-272.7-869c0-145.2,53-213.8,166.7-213.8c104,0,166.7,70.6,166.7,186.4c0,166.7,56.9,386.4,151.1,578.7c172.6,353.1,517.9,627.7,898.4,718c213.8,49,521.8,31.4,737.6-45.1c396.2-137.3,706.2-447.3,841.5-841.5c23.5-62.8,51-204,62.8-311.9c25.5-215.8,64.7-284.4,160.9-284.4c149.1,0,200.1,86.3,178.5,308c-58.8,623.8-461,1177-1031.8,1414.3C5343.2,3649,4919.5,3682.4,4603.7,3603.9z"/><path d="M4854.8,2564.2c-88.3-23.5-225.6-151-266.8-241.3c-86.3-190.3-27.5-433.5,135.4-551.2c43.2-31.4,80.4-66.7,80.4-78.5c2-9.8-90.2-239.3-202.1-510c-774.8-1871.4-1863.6-4500-1877.3-4535.3c-13.7-39.2,11.8-66.7,239.3-255c139.3-115.7,260.9-213.8,268.7-215.8c7.9-3.9,102,294.2,207.9,661.1c107.9,366.8,204,667,215.8,667c25.5,0,820-313.9,841.5-333.5c7.9-7.9-21.6-386.4-66.7-841.6c-43.1-455.1-76.5-831.7-72.6-835.7c2-2,131.4-68.7,284.4-145.2l278.5-139.3l245.2,170.7l247.2,170.7l-2,100c0,53-19.6,398.2-45.1,765c-23.5,366.8-39.2,672.8-33.3,678.7c15.7,15.7,1025.9,413.9,1029.9,406.1c3.9-3.9,92.2-302.1,198.1-663c104-361,194.2-661.1,198.1-665c2-3.9,123.6,92.2,270.7,211.9l264.8,219.7l-119.7,288.4c-64.7,158.9-533.6,1290.8-1039.7,2514.8c-508,1224.1-925.9,2244.1-929.8,2265.7c-5.9,27.5,15.7,56.9,74.5,98.1c113.8,82.4,172.6,202,172.6,351.1c0,153-47.1,257-156.9,351.1C5172.6,2579.9,5013.7,2611.3,4854.8,2564.2z M4945,1673.6c5.9-3.9,0-117.7-13.7-249.1c-13.7-133.4-25.5-251.1-25.5-262.9c-2-11.8-29.4-33.3-60.8-47.1c-51-21.6-64.7-19.6-96.1,7.8c-35.3,33.3-35.3,37.3-2,155c19.6,66.7,54.9,186.4,78.5,264.8c31.4,107.9,49,141.2,76.5,141.2C4921.5,1683.4,4941.1,1679.5,4945,1673.6z M5178.4,1542.2c23.5-78.5,54.9-182.4,70.6-229.5c37.3-117.7,35.3-166.7-11.8-207.9c-37.3-33.3-45.1-33.3-105.9-3.9l-66.7,31.4l-13.7,255c-7.8,139.3-7.8,262.9,0,274.6c5.9,11.8,29.4,21.6,49,21.6C5129.4,1683.4,5147.1,1654,5178.4,1542.2z M5333.4,1000.8c1.9-17.7-11.8-15.7-47.1,7.8c-49,31.4-49,33.3-15.7,70.6c35.3,39.2,35.3,39.2,47.1-7.8C5325.6,1047.9,5331.4,1014.5,5333.4,1000.8z M4727.3,1067.5c0-15.7-11.8-31.4-27.5-37.3c-19.6-7.9-23.5,0-17.7,27.5C4693.9,1100.8,4727.3,1108.7,4727.3,1067.5z M4888.1,1028.3c-13.7-51-17.7-53-43.2-21.6c-25.5,29.4-23.5,37.3,9.8,60.8C4901.8,1100.8,4905.8,1096.9,4888.1,1028.3z M5127.4,987.1c-41.2-64.7-47.1-62.8-47.1,19.6c0,64.7,3.9,68.7,39.2,49C5156.9,1036.1,5156.9,1032.2,5127.4,987.1z M4831.2,963.5l51-54.9l-21.6-207.9l-21.6-207.9l-86.3-51c-47.1-29.4-92.2-53-102-53c-7.8,0-39.2,25.5-70.6,58.8l-54.9,58.9l33.3,121.6c84.4,304.1,90.2,319.7,145.2,353.1C4772.4,1024.3,4770.4,1026.3,4831.2,963.5z M5294.2,955.7c66.7-37.3,76.5-53,127.5-233.4l56.9-196.2l-54.9-68.7c-29.4-39.2-64.7-76.5-78.5-82.4c-15.7-3.9-74.5,21.6-133.4,58.9l-105.9,68.7L5094.1,685l-11.8,184.4l60.8,64.7c35.3,33.4,66.7,62.8,70.6,62.8C5217.7,996.9,5255,979.2,5294.2,955.7z M5561,235.8c-7.8-7.9-147.1,76.5-147.1,90.2c0,5.9,19.6,31.4,43.2,56.9l45.1,47.1l31.4-94.2C5551.2,284.8,5562.9,239.7,5561,235.8z M4546.8,369.1c19.6-33.3,15.7-41.2-35.3-68.7c-66.7-35.3-66.7-35.3-37.3,47.1C4499.7,418.2,4513.4,422.1,4546.8,369.1z M4825.3,312.3c0-98.1-21.6-111.8-80.4-49l-47.1,49l49,37.3C4815.5,402.5,4825.3,398.6,4825.3,312.3z M5209.8,347.6c37.3-21.6,66.7-43.1,66.7-47.1c0-17.7-123.6-147.1-139.3-147.1c-9.8,0-17.7,53-17.7,117.7c0,64.7,5.9,117.7,11.8,117.7C5139.2,388.8,5174.5,371.1,5209.8,347.6z M4719.4,176.9l80.4-92.2l-25.5-235.4c-13.7-129.5-25.5-253.1-25.5-274.6c-2-29.4-37.3-56.9-129.5-104c-70.6-35.3-131.4-62.8-135.4-62.8c-3.9,0-53,60.8-107.9,135.3l-100,133.4l31.4,105.9c113.8,396.3,100,366.8,200.1,429.6c51,31.4,102,58.8,111.8,56.9C4631.1,269.1,4674.3,227.9,4719.4,176.9z M5490.4,182.8l111.8-66.7L5661-86c31.4-111.8,54.9-211.9,54.9-223.6c-2-11.8-49-82.4-105.9-158.9l-104-139.3L5357-539.1c-82.4,37.3-158.9,76.5-170.7,86.3c-11.8,9.8-27.5,119.7-35.3,245.2L5139.2,18l102,117.7c56.9,62.8,109.8,115.7,119.7,115.7C5370.7,251.4,5429.5,220,5490.4,182.8z M4293.7-578.3l58.9-86.3l-90.2-43.2c-49-23.5-92.2-39.2-98.1-35.3c-7.8,9.8,54.9,249.1,64.7,249.1C4232.9-494,4260.4-531.3,4293.7-578.3z M5816-621.5c17.7-70.6,29.4-133.4,23.5-139.3c-5.9-5.9-54.9,11.8-109.8,41.2l-100.1,49l62.8,88.3c35.3,47.1,70.6,86.3,76.5,88.3C5774.8-494,5796.4-550.9,5816-621.5z M5302-662.7c56.9-29.4,104-54.9,107.9-56.9c3.9-3.9-39.2-68.7-96.1-145.2c-56.9-76.5-105.9-135.4-107.9-133.4c-9.8,13.7-27.5,386.5-17.7,386.5C5194.1-611.7,5245.1-635.2,5302-662.7z M4725.3-674.5c0-25.5-7.8-84.3-13.7-133.4l-13.7-88.3l-64.7,92.2c-33.3,51-62.8,96.1-62.8,102c0,15.7,102,68.7,133.4,70.6C4715.5-631.3,4727.3-650.9,4725.3-674.5z M4554.6-939.3l127.5-172.6l-21.6-229.5c-13.7-127.5-31.4-239.3-41.2-249.1c-21.6-19.6-364.9-162.8-370.8-155c-117.7,172.6-264.8,429.6-258.9,449.2c5.9,15.7,31.4,104,60.8,200.1l51,170.7l151,78.5c82.4,41.2,156.9,76.5,162.8,78.5C4423.2-768.6,4486-845.1,4554.6-939.3z M5747.3-872.6l164.8-82.4l53-176.5c45.1-147.1,49-182.4,27.5-215.8c-11.8-21.6-78.5-123.6-145.1-229.5l-121.6-188.3l-241.3,98.1l-241.3,100l-13.7,164.8l-13.7,162.8l162.8,225.6c90.2,123.6,172.6,223.6,182.4,223.6C5572.7-790.2,5655.1-827.5,5747.3-872.6z M6147.5-1751.4c27.5-94.2,51-180.5,51-190.3c0-11.8-66.7,5.9-147.1,39.2c-80.4,33.3-147.1,66.7-147.1,76.5c0,33.3,162.8,274.6,176.5,258.9C6090.6-1574.9,6120-1659.2,6147.5-1751.4z M4009.3-1688.6c39.2-62.8,70.6-119.6,70.6-123.6c0-13.7-255-121.6-262.9-111.8c-11.8,13.7,92.2,351.1,107.9,351.1C3932.8-1572.9,3972-1623.9,4009.3-1688.6z M5460.9-1827.9c104-41.2,164.8-78.5,160.9-92.2c-5.9-13.7-78.5-131.4-162.8-264.8l-153-239.3l-11.8,76.5c-25.5,151.1-41.2,602.2-21.6,596.3C5282.4-1755.3,5366.8-1790.6,5460.9-1827.9z M4599.8-1969.2c-21.6-280.5-25.5-282.5-145.2-94.2c-56.9,90.2-96.1,168.7-86.3,178.5c17.7,15.7,202,94.2,229.5,94.2C4605.6-1788.7,4607.6-1871.1,4599.8-1969.2z M4364.4-2251.6c131.4-211.9,174.6-298.2,170.7-337.4c-3.9-29.4-11.8-56.9-15.7-60.8c-7.8-7.8-796.4,288.4-818,309.9c-7.9,7.9,0,58.8,15.7,111.8l29.4,98.1l190.3,80.4c105.9,43.1,206,80.4,221.7,80.4C4176-1967.2,4260.4-2082.9,4364.4-2251.6z M6290.7-2241.8c13.7-47.1,19.6-90.2,9.8-98.1c-15.7-15.7-925.9-370.7-949.4-370.7c-7.8,0,66.7,129.5,168.7,290.3c100,158.9,206,325.6,233.4,370.8l51,82.4l231.5-96.1C6267.2-2159.4,6267.2-2159.4,6290.7-2241.8z"/></g></g>
</svg>